<?xml version='1.0' encoding='iso-8859-1'?>
<!DOCTYPE svg PUBLIC '-//W3C//DTD SVG 1.1//EN' 'http://www.w3.org/Graphics/SVG/1.1/DTD/svg11.dtd'>
<svg version="1.1" xmlns="http://www.w3.org/2000/svg" viewBox="0 0 475.553 475.553" xmlns:xlink="http://www.w3.org/1999/xlink" enable-background="new 0 0 475.553 475.553">
  <path d="m388.391,230.706l-35.046-35.046 35.046-35.046c3.905-3.905 3.905-10.237 0-14.142l-143.543-143.543c-1.876-1.876-4.419-2.929-7.071-2.929s-5.195,1.053-7.071,2.929l-143.544,143.543c-3.905,3.905-3.905,10.237 0,14.142l35.046,35.046-35.046,35.046c-3.905,3.905-3.905,10.237 0,14.142l35.046,35.046-35.046,35.046c-3.905,3.905-3.905,10.237 0,14.142l143.543,143.543c1.876,1.875 4.419,2.929 7.071,2.929s5.195-1.053 7.071-2.929l143.543-143.543c3.905-3.905 3.905-10.237 0-14.142l-35.046-35.046 35.046-35.046c3.906-3.906 3.906-10.237 0.001-14.142zm-280.015-77.163l129.4-129.401 129.4,129.401-27.974,27.974-94.355-94.355c-3.906-3.905-10.236-3.905-14.143,0l-94.355,94.355-27.973-27.974zm129.401,129.401l-45.167-45.167 45.167-45.168 45.167,45.168-45.167,45.167zm59.309-31.025l27.974,27.974-87.284,87.284-87.284-87.284 27.974-27.974 52.238,52.238c1.953,1.953 4.512,2.929 7.071,2.929s5.118-0.976 7.071-2.929l52.24-52.238zm-52.238-80.523c-1.876-1.875-4.419-2.929-7.071-2.929s-5.195,1.053-7.071,2.929l-52.238,52.238-27.974-27.974 87.284-87.284 87.284,87.284-27.974,27.974-52.24-52.238zm-136.472,66.381l27.974-27.974 27.974,27.974-27.974,27.974-27.974-27.974zm258.801,84.233l-129.4,129.401-129.4-129.401 27.974-27.974 94.355,94.355c1.876,1.875 4.419,2.929 7.071,2.929s5.195-1.053 7.071-2.929l94.355-94.355 27.974,27.974zm-27.974-56.259l-27.974-27.974 27.974-27.974 27.974,27.974-27.974,27.974z"/>
</svg>
