<?xml version='1.0' encoding='iso-8859-1'?>
<svg version="1.1" xmlns="http://www.w3.org/2000/svg" viewBox="0 0 463 463" xmlns:xlink="http://www.w3.org/1999/xlink" enable-background="new 0 0 463 463">
  <g>
    <path d="m439.5,232h-9.174c-9.128-24.382-25.374-46.724-47.326-65.055v-63.445c0-4.143-3.358-7.5-7.5-7.5-25.166,0-47.956,12.936-60.913,34.161-13.78-4.309-27.956-7.252-42.388-8.822 4.459-10.655 6.801-22.224 6.801-33.839 0-48.248-39.252-87.5-87.5-87.5s-87.5,39.252-87.5,87.5c0,24.555 10.462,48.014 28.377,64.487-6.908,4.342-13.515,9.09-19.761,14.25-33.865,27.976-53.605,64.613-56.288,103.994-5.914-2.303-13.831-6.895-21.262-14.02-0.148-0.142-0.296-0.284-0.445-0.43 10.365-12.157 20.379-28.091 20.379-44.281 0-15.163-12.336-27.5-27.5-27.5s-27.5,12.337-27.5,27.5c0,17.28 5.97,32.066 14.48,43.852-6.379,6.226-11.461,10.134-11.528,10.185-3.294,2.512-3.928,7.218-1.417,10.512 2.512,3.293 7.218,3.929 10.511,1.416 0.596-0.454 5.74-4.42 12.275-10.747 10.488,10.187 22.462,16.779 31.851,19.213 2.361,49.013 31.587,94.345 79.474,123.062l-4.441,26.645c-1.138,6.827 0.775,13.771 5.249,19.053 4.474,5.281 11.01,8.311 17.931,8.311h15.559c11.535,0 21.284-8.258 23.18-19.636l1.75-10.5c17.124,4.073 34.786,6.134 52.626,6.134 17.818,0 35.48-2.066 52.622-6.15l1.752,10.514c1.896,11.378 11.645,19.636 23.181,19.636h15.559c6.921,0 13.457-3.029 17.931-8.311 4.474-5.281 6.387-12.226 5.249-19.053l-4.458-26.747c33.768-20.272 58.711-49.054 70.992-81.89h9.173c12.958,0 23.5-10.542 23.5-23.5v-48c-0.001-12.957-10.543-23.499-23.501-23.499zm-424.5-20.5c0-6.893 5.607-12.5 12.5-12.5s12.5,5.608 12.5,12.5c0,9.299-5.208,20.497-15.107,32.563-5.526-8.396-9.893-19.244-9.893-32.563zm104-124c0-39.977 32.523-72.5 72.5-72.5s72.5,32.524 72.5,72.5c0,11.505-2.615,22.491-7.764,32.667-2.904-0.11-5.817-0.167-8.736-0.167-7.213,0-14.362,0.342-21.43,0.993 3.145-3.965 4.93-8.556 4.93-13.493 0-13.63-13.558-24.643-32-27.018v-24.828c10.098,1.808 17,7.057 17,11.846 0,4.143 3.358,7.5 7.5,7.5s7.5-3.357 7.5-7.5c0-13.63-13.558-24.643-32-27.018v-0.982c0-4.143-3.358-7.5-7.5-7.5s-7.5,3.357-7.5,7.5v0.982c-18.442,2.376-32,13.388-32,27.018s13.558,24.643 32,27.018v24.828c-10.098-1.808-17-7.057-17-11.846 0-4.143-3.358-7.5-7.5-7.5s-7.5,3.357-7.5,7.5c0,10.968 8.781,20.24 21.818,24.683-9.57,3.318-18.813,7.29-27.647,11.89-17.068-13.709-27.171-34.612-27.171-56.573zm65-8.154c-10.098-1.808-17-7.057-17-11.846s6.902-10.038 17-11.846v23.692zm15,40v-23.692c10.098,1.808 17,7.057 17,11.846s-6.902,10.038-17,11.846zm249,184.154c0,4.687-3.813,8.5-8.5,8.5h-14.485c-3.238,0-6.11,2.078-7.124,5.153-10.838,32.898-35.874,61.782-70.494,81.332-2.746,1.55-4.229,4.652-3.71,7.764l5.309,31.854c0.417,2.505-0.257,4.952-1.898,6.891-1.642,1.938-3.946,3.006-6.486,3.006h-15.559c-4.172,0-7.698-2.986-8.384-7.103l-3.098-18.588c-0.35-2.098-1.574-3.949-3.368-5.092-1.216-0.775-2.616-1.175-4.03-1.175-0.672,0-1.348,0.091-2.009,0.274-18.332,5.099-37.397,7.684-56.664,7.684-19.296,0-38.363-2.579-56.668-7.667-2.051-0.57-4.245-0.241-6.039,0.901-1.794,1.143-3.018,2.994-3.368,5.092l-3.095,18.572c-0.686,4.115-4.212,7.102-8.384,7.102h-15.559c-2.54,0-4.844-1.067-6.486-3.006-1.642-1.938-2.316-4.386-1.898-6.891l5.292-31.755c0.519-3.112-0.966-6.217-3.714-7.767-47.952-27.04-76.581-71.557-76.581-119.081 0-79.678 79.178-144.5 176.5-144.5 23.455,0 46.403,3.808 68.208,11.316 3.57,1.229 7.494-0.386 9.166-3.77 8.487-17.178 24.597-28.61 43.126-31.056v59.007c0,2.275 1.033,4.428 2.808,5.851 22.678,18.188 38.959,40.837 47.084,65.498 1.013,3.075 3.886,5.153 7.124,5.153h14.484c4.687,0 8.5,3.813 8.5,8.5v48.001z"/>
    <path d="m367.5,224c-4.142,0-7.5,3.357-7.5,7.5v16c0,4.143 3.358,7.5 7.5,7.5s7.5-3.357 7.5-7.5v-16c0-4.142-3.358-7.5-7.5-7.5z"/>
  </g>
</svg>
