<?xml version="1.0" encoding="iso-8859-1"?>
<!-- Generator: Adobe Illustrator 18.1.1, SVG Export Plug-In . SVG Version: 6.00 Build 0)  -->
<svg version="1.1" id="Capa_1" xmlns="http://www.w3.org/2000/svg" xmlns:xlink="http://www.w3.org/1999/xlink" x="0px" y="0px"
	 viewBox="0 0 50 50" style="enable-background:new 0 0 50 50;" xml:space="preserve">
<g>
	<g>
		<path style="fill:#010002;" d="M2.5,49.7h45c1.378,0,2.5-1.122,2.5-2.5V8.032c0-0.96-0.479-2.099-1.164-2.771l-3.904-3.832
			C44.254,0.764,43.117,0.3,42.167,0.3h-8.125c-1.378,0-2.5,1.122-2.5,2.5v1.732H30V2.8c0-1.378-1.122-2.5-2.5-2.5H13.417
			c-1.378,0-2.5,1.122-2.5,2.5v1.732H8.542V2.8c0-1.378-1.122-2.5-2.5-2.5H2.5C1.122,0.3,0,1.422,0,2.8v44.4
			C0,48.578,1.122,49.7,2.5,49.7z M43.833,46.7h-36.5v-4.501h36.5V46.7z M13.917,3.3H27v11.067H13.917V3.3z M3,3.3h2.542v1.732
			c0,1.378,1.122,2.5,2.5,2.5h2.875v7.334c0,1.378,1.122,2.5,2.5,2.5H27.5c1.378,0,2.5-1.122,2.5-2.5V7.532h2.042
			c1.378,0,2.5-1.122,2.5-2.5V3.3h7.625c0.162,0.002,0.546,0.159,0.664,0.271l3.904,3.831c0.111,0.113,0.262,0.472,0.265,0.63V46.7
			h-2.167v-5.001c0-0.276-0.224-0.5-0.5-0.5h-37.5c-0.276,0-0.5,0.224-0.5,0.5V46.7H3V3.3z"/>
		<path style="fill:#010002;" d="M19.305,4.449h-3.776c-0.276,0-0.5,0.224-0.5,0.5v7.833c0,0.276,0.224,0.5,0.5,0.5h3.776
			c0.276,0,0.5-0.224,0.5-0.5V4.949C19.805,4.673,19.582,4.449,19.305,4.449z M18.805,12.282h-2.776V5.449h2.776V12.282z"/>
		<path style="fill:#010002;" d="M25,39.009c5.409,0,9.81-4.401,9.81-9.81s-4.401-9.81-9.81-9.81s-9.81,4.401-9.81,9.81
			S19.591,39.009,25,39.009z M25,20.389c4.858,0,8.81,3.952,8.81,8.81s-3.952,8.81-8.81,8.81s-8.81-3.952-8.81-8.81
			S20.142,20.389,25,20.389z"/>
	</g>
</g>
<g>
</g>
<g>
</g>
<g>
</g>
<g>
</g>
<g>
</g>
<g>
</g>
<g>
</g>
<g>
</g>
<g>
</g>
<g>
</g>
<g>
</g>
<g>
</g>
<g>
</g>
<g>
</g>
<g>
</g>
</svg>
